# xmcd CD database file generated by LOLA_Freedb v0.9beta0
# 
# Track frame offsets:
#      150
#      21907
#      42594
#      59891
#      79698
#      95770
#      118017
#      150021
#      172183
#      191867
#      210212
#      225984
#      249671
#      269141
#      293098
# 
# Disc length: 4372 seconds
# 
# Revision: 2 
# Processed by: cddbd v1.5.2PL0 Copyright (c) Steve Scherf et al.
# Submitted via: LOLA_Freedb v0.9beta0
# 
DISCID=d811120f
DTITLE=Lenny Kravitz - Bestseller
DYEAR=1900
DGENRE=
TTITLE0=Lenny Kravitz - Circus
TTITLE1=Can't get you of my mind
TTITLE2=Magdalena
TTITLE3=Don't go and put a bullet you head
TTITLE4=Are you gonna go my way
TTITLE5=Believe
TTITLE6=Sister
TTITLE7=Eleutheria
TTITLE8=Stand by my woman
TTITLE9=It ain't over 'til it's over
TTITLE10=More than anything in this world
TTITLE11=What the....are we saying?
TTITLE12=I beiong to you
TTITLE13=If you can't say no
TTITLE14=Little girl's eyes
EXTD=
EXTT0=
EXTT1=
EXTT2=
EXTT3=
EXTT4=
EXTT5=
EXTT6=
EXTT7=
EXTT8=
EXTT9=
EXTT10=
EXTT11=
EXTT12=
EXTT13=
EXTT14=
PLAYORDER=
